<svg width="204" height="205" viewBox="0 0 204 205" fill="none" xmlns="http://www.w3.org/2000/svg">
<ellipse cx="104.64" cy="103.592" rx="81.4414" ry="82.9258" fill="#0D0D0D" fill-opacity="0.1"/>
<path d="M94.8134 177.07C107.617 178.335 120.53 176.268 132.306 171.071C144.081 165.874 154.323 157.721 162.044 147.399C169.764 137.077 174.702 124.933 176.381 112.14C178.06 99.3468 176.424 86.3354 171.631 74.3608L157.42 80.0832C161.233 89.6085 162.534 99.9587 161.198 110.135C159.862 120.312 155.934 129.971 149.793 138.182C143.652 146.393 135.505 152.879 126.138 157.013C116.77 161.147 106.499 162.791 96.3139 161.785L94.8134 177.07Z" fill="#4E4B4B"/>
<path d="M179.176 85.1684C175.787 71.3024 168.607 58.6601 158.444 48.6642C148.28 38.6683 135.537 31.7154 121.649 28.5879C107.76 25.4603 93.2763 26.2823 79.8279 30.9613C66.3796 35.6403 54.5 43.9905 45.5259 55.0726C36.5518 66.1546 30.8393 79.5285 29.0313 93.6895C27.2233 107.85 29.3914 122.237 35.2918 135.229C41.1922 148.221 50.5906 159.304 62.4296 167.231C74.2685 175.158 88.0781 179.613 102.305 180.097L103.076 157.258C93.0876 156.919 83.3918 153.791 75.0797 148.225C66.7676 142.66 60.169 134.879 56.0263 125.757C51.8837 116.635 50.3614 106.534 51.6309 96.592C52.9003 86.6496 56.911 77.2597 63.2117 69.4791C69.5124 61.6984 77.853 55.8357 87.2951 52.5506C96.7372 49.2655 106.906 48.6884 116.657 50.8842C126.409 53.08 135.356 57.9617 142.491 64.9798C149.627 71.9979 154.668 80.874 157.048 90.6093L179.176 85.1684Z" fill="#0E9E55"/>
</svg>
