<svg width="347" height="347" viewBox="0 0 347 347" fill="none" xmlns="http://www.w3.org/2000/svg">
<path d="M173.796 137.723C177.732 137.723 181.637 138.405 185.34 139.738L173.796 171.803V137.723Z" fill="#0CA84A"/>
<path d="M193.44 118.114C204.543 122.111 214.188 129.353 221.124 138.899L173.5 173.5L193.44 118.114Z" fill="#13C45A"/>
<path d="M193.552 158.931C194.774 160.613 195.78 162.443 196.545 164.376L173.5 173.5L193.552 158.931Z" fill="#0EC457"/>
<path d="M334.816 109.63C344.218 133.376 348.261 158.905 346.658 184.394C345.054 209.883 337.843 234.704 325.539 257.084C313.236 279.465 296.143 298.853 275.481 313.864C254.819 328.876 231.098 339.141 206.011 343.927L173.5 173.5L334.816 109.63Z" fill="#08D65B"/>
<path d="M189.755 258.713C177.212 261.106 164.295 260.7 151.926 257.525C139.558 254.349 128.043 248.482 118.203 240.342L173.5 173.5L189.755 258.713Z" fill="#078539"/>
<path d="M134.002 221.244C123.92 212.903 116.737 201.585 113.482 188.91L173.5 173.5L134.002 221.244Z" fill="#689904"/>
<path d="M113.482 188.91C110.228 176.236 111.07 162.856 115.887 150.69L173.5 173.5L113.482 188.91Z" fill="#087032"/>
<path d="M115.887 150.69C120.704 138.523 129.249 128.194 140.298 121.182L173.5 173.5L115.887 150.69Z" fill="#117539"/>
<path d="M146.938 131.645C153.988 127.171 162.054 124.551 170.387 124.026L173.5 173.5L146.938 131.645Z" fill="#0A4A23"/>
<path d="M173.111 167.316C173.24 167.308 173.37 167.303 173.5 167.303V173.5L173.111 167.316Z" fill="#31E87A"/>
</svg>
